<?xml version="1.0" standalone="no"?>
<!DOCTYPE svg PUBLIC "-//W3C//DTD SVG 20010904//EN"
 "http://www.w3.org/TR/2001/REC-SVG-20010904/DTD/svg10.dtd">
<svg version="1.0" xmlns="http://www.w3.org/2000/svg"
 width="520.000000pt" height="520.000000pt" viewBox="0 0 520.000000 520.000000"
 preserveAspectRatio="xMidYMid meet">
<metadata>
Created by potrace 1.11, written by Peter Selinger 2001-2013
</metadata>
<g transform="translate(0.000000,520.000000) scale(0.100000,-0.100000)"
fill="#000000" stroke="none">
<path d="M3440 5184 c-483 -85 -864 -447 -971 -922 -24 -107 -32 -315 -16
-429 15 -108 55 -250 88 -307 12 -20 9 -24 -98 -131 -35 -34 -63 -66 -63 -70
0 -4 25 -32 55 -62 30 -30 55 -57 55 -61 0 -3 -28 -35 -62 -70 l-63 -63 43
-39 c23 -22 42 -41 42 -43 0 -3 -471 -476 -1047 -1051 l-1046 -1047 88 -89 88
-89 110 110 111 110 108 -108 108 -108 138 138 138 138 87 -86 c48 -47 87 -90
87 -95 0 -4 -60 -68 -134 -142 l-135 -135 268 -267 268 -267 252 252 252 252
-65 66 -66 66 -138 -138 -138 -138 -91 90 -90 89 138 138 139 139 -103 103
-104 104 90 89 91 90 103 -103 103 -103 138 138 139 138 90 -90 89 -90 -138
-138 -138 -138 62 -62 c34 -35 65 -63 69 -63 9 0 499 490 499 499 0 5 -479
488 -525 530 -3 2 -66 -58 -142 -133 l-137 -137 -90 90 -91 91 138 138 137
137 -105 105 c-58 58 -105 108 -105 111 0 4 153 160 339 346 l339 340 39 -38
c21 -21 42 -38 48 -39 5 0 37 27 70 60 l60 60 63 -61 63 -60 86 87 86 87 92
-32 c142 -47 228 -63 375 -66 219 -5 377 29 564 122 347 171 588 498 654 886
12 72 7 357 -7 417 -84 352 -260 608 -537 785 -102 65 -291 143 -385 159 -19
3 -45 8 -59 12 -51 13 -325 12 -400 -2z"/>
</g>
</svg>
